<?xml version="1.0" encoding="UTF-8" standalone="no"?>
<svg
   id="svg8"
   version="1.1"
   viewBox="0 0 22.955252 18.905374"
   height="18.905375mm"
   width="22.95525mm"
   sodipodi:docname="logo (1).svg"
   inkscape:export-filename="logo (1).png"
   inkscape:export-xdpi="96"
   inkscape:export-ydpi="96"
   xmlns:inkscape="http://www.inkscape.org/namespaces/inkscape"
   xmlns:sodipodi="http://sodipodi.sourceforge.net/DTD/sodipodi-0.dtd"
   xmlns="http://www.w3.org/2000/svg"
   xmlns:svg="http://www.w3.org/2000/svg"
   xmlns:rdf="http://www.w3.org/1999/02/22-rdf-syntax-ns#"
   xmlns:cc="http://creativecommons.org/ns#"
   xmlns:dc="http://purl.org/dc/elements/1.1/">
  <sodipodi:namedview
     id="namedview1"
     pagecolor="#ffffff"
     bordercolor="#000000"
     borderopacity="0.25"
     inkscape:showpageshadow="2"
     inkscape:pageopacity="0.0"
     inkscape:pagecheckerboard="0"
     inkscape:deskcolor="#d1d1d1"
     inkscape:document-units="mm">
    <inkscape:page
       x="0"
       y="0"
       width="22.955252"
       height="18.905375"
       id="page2"
       margin="0"
       bleed="0" />
  </sodipodi:namedview>
  <defs
     id="defs2">
    <style
       id="style80">.cls-1{fill:#3c3c3b;}.cls-2{fill:#2b93d1;}.cls-3{fill:none;stroke:#fff;stroke-width:7.04px;}.cls-4{fill:#ea0a8c;}</style>
    <style
       id="style1061">.cls-1{fill:#3c3c3b;}.cls-2{fill:#de047b;}</style>
  </defs>
  <metadata
     id="metadata5">
    <rdf:RDF>
      <cc:Work
         rdf:about="">
        <dc:format>image/svg+xml</dc:format>
        <dc:type
           rdf:resource="http://purl.org/dc/dcmitype/StillImage" />
      </cc:Work>
    </rdf:RDF>
  </metadata>
  <g
     transform="translate(-5.1533279,-1.8228961)"
     id="layer1">
    <g
       transform="matrix(0.26458333,0,0,0.26458333,5.1533279,1.8228961)"
       id="Calque_2"
       data-name="Calque 2">
      <g
         id="Calque_1-2"
         data-name="Calque 1">
        <path
           style="fill:#3c3c3b"
           class="cls-1"
           d="M 65.51,13.88 A 4.93,4.93 0 1 0 60.58,9 a 4.93,4.93 0 0 0 4.93,4.93"
           id="path86" />
        <path
           style="fill:#3c3c3b"
           class="cls-1"
           d="M 79.49,29.61 A 5.54,5.54 0 1 0 74,24.07 a 5.54,5.54 0 0 0 5.53,5.54"
           id="path88" />
        <path
           style="fill:#3c3c3b"
           class="cls-1"
           d="M 43.61,8.36 A 4.18,4.18 0 1 0 39.43,4.18 4.18,4.18 0 0 0 43.61,8.36"
           id="path90" />
        <path
           style="fill:#3c3c3b"
           class="cls-1"
           d="m 80.15,30.49 c -3.63,0 -6.57,2.59 -6.57,5.79 V 43.8 H 72 l -5.21,-9.5 a 5.91,5.91 0 0 0 5.15,-5.88 v -7.66 a 5.85,5.85 0 1 0 -11.7,0 v 1.56 L 59.08,20.2 a 4.14,4.14 0 0 0 -3.44,-2.12 h -7.06 v -4.31 c 0,-2.41 -2.23,-4.37 -5,-4.37 -2.77,0 -5,2 -5,4.37 v 4.31 h -6.6 a 4.31,4.31 0 0 0 -3.44,2.12 l -1.76,3.07 v -2.74 a 5.85,5.85 0 1 0 -11.7,0 v 7.67 a 5.89,5.89 0 0 0 5.48,5.91 l -5.58,9.71 c -0.2,0 -0.41,0 -0.62,0 h -1.21 v -7.54 c 0,-3.2 -3,-5.8 -6.58,-5.8 -3.58,0 -6.57,2.6 -6.57,5.8 v 14.87 c 0,3.2 2.94,5.79 6.57,5.79 h 0.21 0.16 7.49 0.39 57 a 4.24,4.24 0 0 0 0.51,0 h 7.49 0.16 0.21 c 3.62,0 6.57,-2.59 6.57,-5.79 V 36.28 c 0,-3.2 -3,-5.79 -6.57,-5.79"
           id="path92" />
        <path
           style="fill:#3c3c3b"
           class="cls-1"
           d="m 21.58,13.65 a 4.93,4.93 0 1 0 -4.93,-4.93 4.92,4.92 0 0 0 4.93,4.93"
           id="path94" />
        <path
           style="fill:#3c3c3b"
           class="cls-1"
           d="M 7.23,29.6 A 5.54,5.54 0 1 0 1.69,24.07 5.53,5.53 0 0 0 7.23,29.6"
           id="path96" />
        <path
           style="fill:#2b93d1"
           class="cls-2"
           d="m 52,50.83 c 0,-4.07 -3.74,-7.37 -8.37,-7.37 -4.63,0 -8.37,3.3 -8.37,7.37 v 9.54 c 0,4.07 3.75,7.37 8.37,7.37 4.62,0 8.37,-3.3 8.37,-7.37 z M 50.65,34.64 a 7.05,7.05 0 1 1 -7,-7 7.05,7.05 0 0 1 7,7"
           id="path98" />
        <path
           style="fill:none;stroke:#ffffff;stroke-width:7.04px"
           class="cls-3"
           d="m 52,50.83 c 0,-4.07 -3.74,-7.37 -8.37,-7.37 -4.63,0 -8.37,3.3 -8.37,7.37 v 9.54 c 0,4.07 3.75,7.37 8.37,7.37 4.62,0 8.37,-3.3 8.37,-7.37 z M 50.65,34.64 a 7.05,7.05 0 1 1 -7,-7 7.05,7.05 0 0 1 7,7 z"
           id="path100" />
        <path
           style="fill:#ea0a8c;stroke:#ffffff;stroke-width:7.42677;stroke-linecap:round;stroke-linejoin:bevel;stroke-dasharray:none;stroke-opacity:1;paint-order:stroke fill markers"
           class="cls-4"
           d="m 52,50.83 c 0,-4.07 -3.74,-7.37 -8.37,-7.37 -4.63,0 -8.37,3.3 -8.37,7.37 v 9.54 c 0,4.07 3.75,7.37 8.37,7.37 4.62,0 8.37,-3.3 8.37,-7.37 z M 50.65,34.64 a 7.05,7.05 0 1 1 -7,-7 7.05,7.05 0 0 1 7,7"
           id="path102" />
      </g>
    </g>
    <g
       transform="translate(2.7403273,-2.5513393)"
       style="fill:#de007b;fill-opacity:0.991684"
       id="g935" />
  </g>
</svg>
